# xmcd
#
# Track frame offsets: 
#        150
#        27000
#        61238
#        94276
#        124989
#
# Disc length: 3090 seconds
#
# Revision: 0
# Processed by: cddbd v1.5.2PL0 Copyright (c) Steve Scherf et al.
# Submitted via: ExactAudioCopy v0.95b3
#
DISCID=3c0c1005
DTITLE=Night of the Brain - 9:09 EP
DYEAR=2008
DGENRE=Rock
TTITLE0=Quick Dust
TTITLE1=Ultrabright
TTITLE2=King-Knot
TTITLE3=The Desert
TTITLE4=Data Track
EXTD=
EXTT0=
EXTT1=
EXTT2=
EXTT3=
EXTT4=
PLAYORDER=
